<svg width="840" height="270" viewBox="0 0 840 270" fill="none" xmlns="http://www.w3.org/2000/svg">
<g clip-path="url(#clip0_1954_29946)">
<path d="M319.614 174.935H309.247L328.899 91.1104H339.156L319.626 174.929H319.614V174.935Z" fill="white"/>
<path d="M367.824 174.935H333.211L352.997 91.1104H363.365L345.768 165.553H369.995L367.83 174.935H367.824Z" fill="white"/>
<path d="M394.974 142.519L387.494 174.929H376.998L384.595 142.274L378.809 91.1104H389.304L392.32 131.956L414.865 91.1104H426.559L394.968 142.519H394.974Z" fill="white"/>
<path d="M627.103 100.493H611.91L595.493 174.935H584.998L601.414 100.493H584.771L587.065 91.1104H629.397L627.097 100.493H627.103Z" fill="white"/>
<path d="M626.761 174.935H617.47L636.051 91.1104H646.296L627.843 174.929H626.761V174.935Z" fill="white"/>
<path d="M694.499 114.695L685.239 156.641C683.992 162.464 682.254 166.623 680.004 169.596C676.572 174.232 670.945 176.495 663.343 176.495C650.798 176.495 643.611 171.021 643.47 161.638C643.428 158.904 643.758 156.409 644.767 151.895L654.027 109.949C657.073 96.0341 664.217 89.7281 676.64 89.7281C689.062 89.7281 695.533 95.4347 695.674 104.94C695.717 107.674 695.386 110.53 694.481 114.683H694.493V114.695H694.499ZM676.175 98.5296C672.56 98.5296 669.801 99.71 667.912 102.089C666.364 103.991 665.569 106.487 664.425 111.356L655.165 153.534C654.596 156.03 654.272 158.403 654.296 160.189C654.37 165.186 657.667 167.914 663.33 167.914C669.361 167.914 672.566 164.47 674.487 155.913L683.863 114.206C684.762 110.157 685.111 108.261 685.074 106.359C685.001 101.245 681.82 98.5112 676.15 98.5112H676.163L676.175 98.5296Z" fill="white"/>
<path d="M434.596 91.196H451.967L456.743 139.252C457.6 148.519 458.083 155.999 458.707 166.122H458.952C462.988 156.128 466.42 148.543 470.94 139.252L494.653 91.196H512.274L502.861 174.899H491.356L497.356 124.916C498.463 115.882 499.687 108.169 501.155 98.9027L500.91 98.7742C496.745 107.808 493.075 115.753 488.561 124.91L464.346 174.893H449.538L444.89 124.91C444.034 115.876 443.422 107.802 442.81 98.8966H442.572C440.498 107.802 438.535 115.759 435.96 124.91L422.504 174.893H410.883L434.596 91.196Z" fill="white"/>
<path d="M580.973 133.002C574.759 165.149 561.242 176.422 539.92 176.422C523.106 176.422 513.846 169.229 513.846 150.751C513.846 145.228 514.446 139.827 515.797 133.118C522.262 100.982 535.547 89.6975 556.985 89.6975C573.671 89.6975 583.059 96.8904 583.059 115.368C583.059 120.891 582.331 126.292 580.986 133.002H580.973ZM555.627 98.5785C541.743 98.5785 532.367 107.582 527.247 133.356C525.908 139.344 525.174 145.228 525.174 150.036C525.174 162.501 530.526 167.541 541.131 167.541C555.144 167.541 564.392 158.537 569.64 132.763C570.863 126.775 571.713 120.891 571.713 116.084C571.713 103.722 566.361 98.5785 555.627 98.5785Z" fill="white"/>
<path d="M240.15 91.0921C238.162 91.0921 220.792 91.3795 220.792 91.3795L203.335 175.07H211.568V175.058C216.259 175.015 217.996 175.113 222.578 175.113C243.985 175.113 257.533 165.51 263.771 133.466H263.784C265.123 126.781 265.863 121.399 265.863 115.894C265.863 97.4714 256.915 91.0859 240.156 91.0859L240.15 91.0921ZM253.319 133.436C248.052 159.131 239.618 165.002 225.55 165.076C220.639 165.094 219.519 165.057 215.795 165.002L229.153 100.42V100.438C233.336 100.34 234.327 100.303 238.168 100.34C248.939 100.438 255.398 104.505 255.398 116.824C255.398 121.607 254.548 127.472 253.325 133.442L253.312 133.43L253.319 133.436Z" fill="white"/>
<path d="M757.376 91.092L740.788 166.177L728.47 91.092H711.13L692.279 174.966H703.179L719.754 98.5907L731.975 174.966H749.131L767.878 91.092H757.376Z" fill="white"/>
<path d="M293.222 91.1226L258.738 174.942H269.821L276.096 159.271L280.078 149.54L281.485 145.779H293.118L292.745 149.54L291.895 159.284L290.696 174.954H301.192L307.681 91.1226H293.204H293.216H293.222ZM285.161 135.925L298.519 98.7253L294.121 135.925H285.161Z" fill="white"/>
</g>
<path d="M118.986 68.0455H71.4414C69.5736 68.0455 68.0454 69.5958 68.0454 71.4906V92.1612C68.0454 93.0225 68.385 93.8838 69.0642 94.5728L89.4403 115.243C90.1195 115.932 90.9685 116.277 91.8175 116.277H118.986C128.325 116.277 135.966 124.028 135.966 133.502C135.966 142.977 128.325 150.728 118.986 150.728H81.6295C79.7617 150.728 78.2335 152.278 78.2335 154.173V174.844C78.2335 175.705 78.5731 176.566 79.2523 177.255L99.6284 197.926C100.308 198.615 101.157 198.96 102.006 198.96H118.986C154.644 198.96 183.51 169.676 183.51 133.502C183.51 97.3289 154.644 68.0455 118.986 68.0455ZM74.8374 79.7588L88.4215 93.5393V104.391L74.8374 90.6109V79.7588ZM142.758 133.502C142.758 120.239 132.06 109.387 118.986 109.387H95.2135V95.6063H118.986C139.532 95.6063 156.342 112.66 156.342 133.502C156.342 154.345 139.532 171.399 118.986 171.399H103.364L89.7799 157.618H118.986C132.06 157.618 142.758 146.766 142.758 133.502ZM85.0255 162.441L98.6096 176.222V187.074L85.0255 173.293V162.441ZM118.986 192.069H105.402V178.289H118.986C143.267 178.289 163.134 158.135 163.134 133.502C163.134 108.87 143.267 88.7161 118.986 88.7161H93.1759L79.5919 74.9357H118.986C150.738 74.9357 176.718 101.291 176.718 133.502C176.718 165.714 150.738 192.069 118.986 192.069Z" fill="white"/>
<defs>
<clipPath id="clip0_1954_29946">
<rect width="564.542" height="86.7976" fill="white" transform="translate(203.335 89.6975)"/>
</clipPath>
</defs>
</svg>
